HIERARCHY
ROOT Hips
{
	OFFSET 0.000000 0.000000 0.000000
	CHANNELS 6 Xposition Yposition Zposition Zrotation Yrotation Xrotation 
	JOINT LHipJoint
	{
		OFFSET 0.000000 0.000000 0.000000
		CHANNELS 3 Zrotation Yrotation Xrotation
		JOINT LeftUpLeg
		{
			OFFSET 1.363060 -1.794630 0.839290
			CHANNELS 3 Zrotation Yrotation Xrotation
			JOINT LeftLeg
			{
				OFFSET 2.448110 -6.726130 0.000000
				CHANNELS 3 Zrotation Yrotation Xrotation
				JOINT LeftFoot
				{
					OFFSET 2.562200 -7.039590 0.000000
					CHANNELS 3 Zrotation Yrotation Xrotation
					JOINT LeftToeBase
					{
						OFFSET 0.157640 -0.433110 2.322550
						CHANNELS 3 Zrotation Yrotation Xrotation
						End Site
						{
							OFFSET 0.000000 0.000000 0.000000
						}
					}
				}
			}
		}
	}
	JOINT RHipJoint
	{
		OFFSET 0.000000 0.000000 0.000000
		CHANNELS 3 Zrotation Yrotation Xrotation
		JOINT RightUpLeg
		{
			OFFSET -1.305520 -1.794630 0.839290
			CHANNELS 3 Zrotation Yrotation Xrotation
			JOINT RightLeg
			{
				OFFSET -2.542530 -6.985550 0.000000
				CHANNELS 3 Zrotation Yrotation Xrotation
				JOINT RightFoot
				{
					OFFSET -2.568260 -7.056230 0.000000
					CHANNELS 3 Zrotation Yrotation Xrotation
					JOINT RightToeBase
					{
						OFFSET -0.164730 -0.452590 2.363150
						CHANNELS 3 Zrotation Yrotation Xrotation
						End Site
						{
							OFFSET 0.000000 0.000000 0.000000
						}
					}
				}
			}
		}
	}
	JOINT LowerBack
	{
		OFFSET 0.000000 0.000000 0.000000
		CHANNELS 3 Zrotation Yrotation Xrotation
		JOINT Spine
		{
			OFFSET 0.028270 2.035590 -0.193380
			CHANNELS 3 Zrotation Yrotation Xrotation
			JOINT Spine1
			{
				OFFSET 0.056720 2.048850 -0.042750
				CHANNELS 3 Zrotation Yrotation Xrotation
				JOINT Neck
				{
					OFFSET 0.000000 0.000000 0.000000
					CHANNELS 3 Zrotation Yrotation Xrotation
					JOINT Neck1
					{
						OFFSET -0.054170 1.746240 0.172020
						CHANNELS 3 Zrotation Yrotation Xrotation
						JOINT Head
						{
							OFFSET 0.104070 1.761360 -0.123970
							CHANNELS 3 Zrotation Yrotation Xrotation
							End Site
							{
								OFFSET 0.000000 0.000000 0.000000
							}
						}
					}
				}
				JOINT LeftShoulder
				{
					OFFSET 0.000000 0.000000 0.000000
					CHANNELS 3 Zrotation Yrotation Xrotation
					JOINT LeftArm
					{
						OFFSET 3.362410 1.200890 -0.311210
						CHANNELS 3 Zrotation Yrotation Xrotation
						JOINT LeftForeArm
						{
							OFFSET 4.983000 -0.000000 -0.000000
							CHANNELS 3 Zrotation Yrotation Xrotation
							JOINT LeftHand
							{
								OFFSET 3.483560 -0.000000 -0.000000
								CHANNELS 3 Zrotation Yrotation Xrotation
								JOINT LeftFingerBase
								{
									OFFSET 0.000000 0.000000 0.000000
									CHANNELS 3 Zrotation Yrotation Xrotation
									JOINT LeftHandIndex1
									{
										OFFSET 0.715260 -0.000000 -0.000000
										CHANNELS 3 Zrotation Yrotation Xrotation
										End Site
										{
											OFFSET 0.000000 0.000000 0.000000
										}
									}
								}
								JOINT LThumb
								{
									OFFSET 0.000000 0.000000 0.000000
									CHANNELS 3 Zrotation Yrotation Xrotation
									End Site
									{
										OFFSET 0.000000 0.000000 0.000000
									}
								}
							}
						}
					}
				}
				JOINT RightShoulder
				{
					OFFSET 0.000000 0.000000 0.000000
					CHANNELS 3 Zrotation Yrotation Xrotation
					JOINT RightArm
					{
						OFFSET -3.136600 1.374050 -0.404650
						CHANNELS 3 Zrotation Yrotation Xrotation
						JOINT RightForeArm
						{
							OFFSET -5.241900 -0.000000 -0.000000
							CHANNELS 3 Zrotation Yrotation Xrotation
							JOINT RightHand
							{
								OFFSET -3.444170 -0.000000 -0.000000
								CHANNELS 3 Zrotation Yrotation Xrotation
								JOINT RightFingerBase
								{
									OFFSET 0.000000 0.000000 0.000000
									CHANNELS 3 Zrotation Yrotation Xrotation
									JOINT RightHandIndex1
									{
										OFFSET -0.622530 -0.000000 -0.000000
										CHANNELS 3 Zrotation Yrotation Xrotation
										End Site
										{
											OFFSET 0.000000 0.000000 0.000000
										}
									}
								}
								JOINT RThumb
								{
									OFFSET 0.000000 0.000000 0.000000
									CHANNELS 3 Zrotation Yrotation Xrotation
									End Site
									{
										OFFSET 0.000000 0.000000 0.000000
									}
								}
							}
						}
					}
				}
			}
		}
	}
}
MOTION
Frames: 9
Frame Time: 0.008333
3.984791 17.333216 0.977689 172.241836 -88.416654 -159.740760 -10.974272 0.871020 -0.214516 -6.512446 18.354084 -18.300724 -2.957201 -1.424973 -2.372567 0.207114 3.454225 6.150496 1.111200 -0.000000 -35.942000 9.957219 -2.077633 2.881900 2.569150 -2.890373 -13.769255 2.154561 1.257455 -4.154437 -0.704895 -4.936867 4.378675 -1.711600 0.000001 -37.932000 2.068113 3.909111 -3.246874 0.575713 3.854323 -4.656272 0.486045 4.001387 -6.316005 -6.438451 5.390704 3.118906 -1.243027 -0.277491 3.061889 0.000000 0.000000 0.000000 1.836408 -3.577072 -3.791216 -91.625489 -25.351075 35.148239 -178.922999 -51.389187 179.979771 -0.993594 -10.504591 0.124905 0.223749 1.271299 -0.000000 0.000000 0.000000 0.000000 0.000000 0.000000 0.000000 -15.451663 11.739855 0.050229 3.874953 75.574215 -85.945698 -4.448925 9.140220 -0.071393 -9.242664 8.755401 -0.759381 0.082895 -0.521342 0.000000 0.000000 0.000000 0.000000 0.000000 0.000000 0.000000 
3.978436 17.334709 0.972206 174.303040 -87.907526 -160.882888 -11.086318 0.675714 -0.849876 -6.455614 18.477944 -18.500661 -2.961417 -1.364380 -2.498777 0.245282 3.568358 6.154213 1.117800 0.000000 -35.932000 9.851817 -1.759711 2.238594 2.623437 -2.662852 -14.070066 2.192966 1.276288 -4.008322 -0.662668 -4.743717 4.360291 -1.664500 0.000000 -38.057600 2.615131 3.401919 -1.459171 0.519108 3.289109 -5.050421 -0.312366 3.505572 -8.971969 -7.104864 4.880774 1.452000 -1.638442 -0.269777 2.600211 0.000000 0.000000 0.000000 3.017386 0.242407 -3.806994 -91.493240 -23.077057 34.795884 -178.778850 -49.352041 179.975883 -0.789703 -10.618018 0.101659 0.205684 1.220353 -0.000000 0.000000 0.000000 0.000000 0.000000 0.000000 0.000000 -15.446207 6.823586 -2.155070 53.902301 84.361660 -37.453476 -10.489735 11.738687 -0.097975 -8.240674 9.127941 -0.694757 -0.091441 -0.578295 -0.000000 0.000000 0.000000 0.000000 0.000000 0.000000 0.000000 
3.969852 17.335169 0.968897 175.072641 -87.556384 -162.373832 -11.167920 0.888215 -0.460369 -6.264548 18.582999 -18.062516 -2.907343 -1.329508 -2.563244 0.254488 3.587337 6.183406 1.116300 -0.000000 -35.944700 9.774724 -1.856333 2.453934 2.685725 -2.778380 -13.582908 2.226340 1.315587 -3.956303 -0.642635 -4.705639 4.350659 -1.663300 0.000001 -38.187599 2.234604 2.648678 -2.447491 0.718776 2.554887 -4.126622 0.554247 2.651013 -4.737378 -6.876079 3.801414 -0.319955 -1.990581 -0.252266 2.033338 0.000000 0.000000 0.000000 3.466412 1.125367 -4.857492 -91.163070 -23.032366 33.487556 -179.535407 -48.302632 179.963801 -0.535893 -10.684364 0.079688 0.243366 1.199878 -0.000000 0.000000 0.000000 0.000000 0.000000 0.000000 0.000000 -12.384861 4.861611 4.623746 -88.760856 83.400697 -177.956451 -8.354993 11.774571 -0.100431 -7.378457 9.132774 -0.627117 -0.091079 -0.668972 -0.000000 0.000000 0.000000 0.000000 0.000000 0.000000 0.000000 
3.959348 17.334335 0.967652 175.732461 -87.902484 -163.307331 -11.206681 0.924424 -0.371915 -6.030895 18.341025 -17.725713 -2.863171 -1.314401 -2.648541 0.253683 3.554267 6.217515 1.107601 0.000000 -35.982900 9.748648 -1.877433 2.389030 2.785621 -3.007223 -13.070132 2.227724 1.332003 -4.100331 -0.669092 -4.902863 4.329780 -1.708000 0.000001 -38.304300 2.091859 2.463011 -2.527233 0.628521 2.372751 -4.174197 0.160333 2.475288 -4.825227 -5.910888 2.495842 0.113420 -2.190281 -0.271783 2.152437 0.000000 0.000000 0.000000 4.323763 0.955870 -4.526228 -90.722144 -22.050451 32.731806 -179.696297 -47.990040 179.959940 -0.338423 -10.700057 0.059748 0.245213 1.217001 -0.000000 0.000000 0.000000 0.000000 0.000000 0.000000 0.000000 -10.956930 3.854315 3.335494 -90.194834 87.681960 -170.826099 -7.508756 16.544426 -0.107462 -7.296125 8.910854 -0.609423 -0.095770 -0.733770 -0.000000 0.000000 0.000000 0.000000 0.000000 0.000000 0.000000 
3.947133 17.332048 0.968168 176.136821 -88.469605 -163.953397 -11.241364 0.963137 -0.278655 -5.770652 17.870772 -17.369058 -2.808511 -1.293259 -2.749437 0.253799 3.500557 6.235155 1.092300 -0.000001 -36.048600 9.728243 -1.870618 2.252818 2.888324 -3.332390 -12.415025 2.220247 1.365894 -4.373246 -0.720117 -5.274087 4.307934 -1.795800 -0.000000 -38.388000 1.983158 2.215450 -2.503312 0.531945 2.127837 -4.342693 -0.340554 2.245557 -5.430401 -4.861760 1.414643 0.858482 -2.394826 -0.296664 2.364820 0.000000 0.000000 0.000000 5.133270 0.798916 -4.005620 -90.178743 -20.987860 32.035646 -179.780043 -47.775478 179.957158 -0.162735 -10.700378 0.041611 0.243567 1.237301 -0.000000 0.000000 0.000000 0.000000 0.000000 0.000000 0.000000 -9.613327 2.957503 1.076819 81.338954 85.725951 9.083915 -6.917262 24.089172 -0.122910 -7.790053 8.707996 -0.640404 -0.108710 -0.796540 -0.000000 0.000000 0.000000 0.000000 0.000000 0.000000 0.000000 
3.933555 17.328232 0.969947 176.058108 -89.242915 -164.239746 -11.264996 1.038488 -0.087951 -5.489956 17.225366 -16.960627 -2.743137 -1.271330 -2.836418 0.251572 3.422499 6.231010 1.071200 0.000000 -36.143300 9.716652 -1.885807 2.155763 2.990006 -3.751235 -11.602528 2.202698 1.411374 -4.740103 -0.793914 -5.797375 4.276763 -1.920600 -0.000001 -38.423799 1.785473 1.940443 -2.667552 0.449618 1.865873 -4.489368 -0.707666 1.987575 -5.805094 -3.736554 0.833085 1.851777 -2.573864 -0.323221 2.646058 0.000000 0.000000 0.000000 5.751695 0.308505 -3.459729 -89.590387 -20.142982 31.334720 -179.842740 -47.773825 179.954886 -0.001567 -10.681603 0.024852 0.241438 1.265001 -0.000000 0.000000 0.000000 0.000000 0.000000 0.000000 0.000000 -8.199935 2.854616 -0.916720 73.060913 78.679043 7.479884 -5.700403 34.065734 -0.135840 -8.312939 8.773737 -0.689445 -0.123444 -0.827137 -0.000000 0.000000 0.000000 0.000000 0.000000 0.000000 0.000000 
3.918765 17.322863 0.972351 -6.348695 -89.859246 17.743428 -11.267399 1.147858 0.166189 -5.199160 16.449004 -16.547609 -2.670581 -1.245347 -2.899223 0.249894 3.328670 6.194315 1.044400 0.000000 -36.267600 9.721957 -1.900676 2.079018 3.094342 -4.224578 -10.699421 2.180260 1.469324 -5.166298 -0.883675 -6.433943 4.231948 -2.073000 -0.000000 -38.404400 1.546754 1.611887 -2.943936 0.408848 1.556076 -4.546647 -0.914260 1.671389 -5.796725 -2.615851 0.756306 2.784409 -2.750914 -0.346612 2.902216 0.000000 0.000000 0.000000 6.167301 -0.220302 -3.005239 -89.001778 -19.576272 30.650547 -179.876240 -47.836102 179.953175 0.148637 -10.652685 0.009176 0.237877 1.292650 -0.000000 0.000000 0.000000 0.000000 0.000000 0.000000 0.000000 -6.567118 3.223599 -2.059155 67.151631 72.303543 6.189771 -4.104082 45.601334 -0.139559 -8.463457 9.078991 -0.722885 -0.136905 -0.824546 -0.000000 0.000000 0.000000 0.000000 0.000000 0.000000 0.000000 
3.903240 17.316029 0.974718 2.120584 -88.964134 8.872731 -11.314912 1.220486 0.441136 -4.958536 15.570859 -16.148256 -2.601936 -1.224471 -2.911771 0.240631 3.208377 6.126706 1.012000 -0.000001 -36.419900 9.672461 -1.944455 1.983098 3.151980 -4.734023 -9.804159 2.142763 1.526596 -5.635692 -0.995770 -7.156992 4.160300 -2.241500 0.000000 -38.330900 1.231716 1.247480 -3.202481 0.344535 1.217796 -4.535812 -1.091240 1.330515 -5.583345 -1.516876 0.962132 3.518920 -2.936450 -0.365272 3.095420 0.000000 0.000000 0.000000 6.462920 -0.567480 -2.646678 -88.409747 -19.282330 30.033073 -179.850880 -47.888500 179.952455 0.290428 -10.618934 -0.005913 0.230298 1.316838 -0.000000 0.000000 0.000000 0.000000 0.000000 0.000000 0.000000 -4.819210 3.657324 -2.543749 63.627239 66.775758 5.746834 -2.577855 57.404805 -0.135288 -8.174577 9.493758 -0.725286 -0.144898 -0.810371 -0.000000 0.000000 0.000000 0.000000 0.000000 0.000000 0.000000 
3.887780 17.307743 0.978226 -2.304490 -87.131359 12.953806 -11.280117 1.351833 0.934018 -4.467424 13.590493 -15.962139 -2.456478 -1.174215 -2.710590 0.269009 3.271909 5.901036 1.011000 0.000000 -36.539600 9.677116 -1.880034 1.610772 3.536818 -6.377540 -9.341185 2.185626 1.538455 -5.091539 -0.980328 -7.607465 3.543945 -2.354300 0.000001 -38.215001 1.198613 0.671068 -3.406283 0.362882 0.644335 -4.500589 -1.322351 0.748102 -5.300198 -0.436829 1.170693 4.052472 -3.121023 -0.379724 3.231337 0.000000 0.000000 0.000000 6.661612 -0.820601 -2.350744 -87.902168 -19.301791 29.556034 -179.713920 -47.999808 179.953449 0.421867 -10.579678 -0.020583 0.215395 1.341140 -0.000000 0.000000 0.000000 0.000000 0.000000 0.000000 0.000000 -3.180907 3.774020 -2.734485 61.888431 61.877432 6.106661 -1.349455 68.548685 -0.126941 -7.598189 9.912825 -0.699834 -0.145193 -0.800759 -0.000000 0.000000 0.000000 0.000000 0.000000 0.000000 0.000000 
